<svg xmlns="http://www.w3.org/2000/svg" xml:space="preserve" style="shape-rendering:geometricPrecision;text-rendering:geometricPrecision;image-rendering:optimizeQuality;fill-rule:evenodd;clip-rule:evenodd" viewBox="0 0 282.943 85.908">
  <path style="fill:#084ec4;fill-rule:nonzero" d="M32.746 42.627h32.746v27.365L32.746 85.908 0 69.992V0l32.746 17.629z"/>
  <path style="fill:#0740a5;fill-rule:nonzero" d="M32.746 42.627h32.746v27.365L32.746 85.908z"/>
  <path class="fil2" d="M82.883 74.427V14.479h13.103v59.948zm34.022 1.113q-8.993 0-14.216-6.08-5.224-6.081-5.224-15.672 0-9.42 5.395-15.586t14.216-6.166q4.368 0 7.793 1.884 3.426 1.884 5.139 5.138v-5.909h13.017v41.278h-13.017v-5.823q-1.713 3.083-5.267 5.009t-7.836 1.927m3.768-10.876q4.71 0 7.279-3.083t2.569-7.793q0-4.624-2.569-7.708-2.57-3.083-7.279-3.083-4.454 0-7.151 2.998-2.698 2.997-2.698 7.793 0 4.795 2.698 7.836 2.697 3.04 7.151 3.04m26.914 9.763V33.149h13.103v5.995q3.683-7.108 13.359-7.108 15.073 0 15.073 16.87v25.521h-13.189V53.188q0-5.31-1.67-7.707t-5.609-2.398q-7.965 0-7.964 9.763v21.581zm75.129-59.948h13.102v59.948h-13.017v-5.823q-1.712 3.083-5.267 5.009-3.553 1.927-7.836 1.927-8.991 0-14.216-6.08-5.224-6.081-5.224-15.672 0-9.42 5.395-15.586 5.396-6.166 14.217-6.166 4.367 0 7.793 1.884 3.425 1.884 5.138 5.138v-3.511h-.085zm-9.25 50.185q4.711 0 7.28-3.083t2.569-7.793q0-4.624-2.569-7.708-2.569-3.083-7.28-3.083-4.453 0-7.15 2.998-2.698 2.997-2.698 7.793 0 4.795 2.698 7.836 2.697 3.04 7.15 3.04m43.357 10.876q-8.992 0-14.216-6.08-5.224-6.081-5.224-15.672 0-9.42 5.395-15.586 5.396-6.166 14.216-6.166 4.368 0 7.794 1.884t5.138 5.138v-5.909h13.017v41.278h-13.017v-5.823q-1.713 3.083-5.267 5.009-3.553 1.927-7.836 1.927m3.768-10.876q4.71 0 7.28-3.083 2.569-3.083 2.569-7.793 0-4.624-2.569-7.708-2.57-3.083-7.28-3.083-4.453 0-7.151 2.998-2.697 2.997-2.697 7.793 0 4.795 2.697 7.836 2.698 3.04 7.151 3.04"/>
</svg>
