<?xml version="1.0" encoding="UTF-8"?>
<!DOCTYPE svg PUBLIC "-//W3C//DTD SVG 1.1//EN" "http://www.w3.org/Graphics/SVG/1.1/DTD/svg11.dtd">
<!-- Creator: CorelDRAW 2021 (64-Bit) -->
<svg xmlns="http://www.w3.org/2000/svg" xml:space="preserve" width="1256px" height="381px" version="1.1" style="shape-rendering:geometricPrecision; text-rendering:geometricPrecision; image-rendering:optimizeQuality; fill-rule:evenodd; clip-rule:evenodd"
viewBox="0 0 282.943 85.908"
 xmlns:xlink="http://www.w3.org/1999/xlink"
 xmlns:xodm="http://www.corel.com/coreldraw/odm/2003">
 <defs>
  <style type="text/css">
   <![CDATA[
    .fil1 {fill:#0740A5;fill-rule:nonzero}
    .fil0 {fill:#084EC4;fill-rule:nonzero}
    .fil2 {fill:#1A1A1A;fill-rule:nonzero}
   ]]>
  </style>
 </defs>
 <g id="Layer_x0020_1">
  <metadata id="CorelCorpID_0Corel-Layer"/>
  <polygon class="fil0" points="32.746,42.627 65.492,42.627 65.492,69.992 32.746,85.908 0,69.992 0,67.795 0,0 32.746,17.629 "/>
  <polygon class="fil1" points="32.746,42.627 65.492,42.627 65.492,69.992 32.746,85.908 "/>
  <polygon class="fil2" points="82.883,74.427 82.883,14.479 95.986,14.479 95.986,74.427 "/>
  <path id="_1" class="fil2" d="M116.905 75.54c-5.995,0 -10.734,-2.026 -14.216,-6.08 -3.483,-4.054 -5.224,-9.278 -5.224,-15.672 0,-6.28 1.798,-11.476 5.395,-15.586 3.597,-4.111 8.335,-6.166 14.216,-6.166 2.912,0 5.509,0.628 7.793,1.884 2.284,1.256 3.997,2.968 5.139,5.138l0 -5.909 13.017 0 0 41.278 -13.017 0 0 -5.823c-1.142,2.055 -2.898,3.725 -5.267,5.009 -2.37,1.285 -4.982,1.927 -7.836,1.927zm3.768 -10.876c3.14,0 5.566,-1.028 7.279,-3.083 1.713,-2.055 2.569,-4.653 2.569,-7.793 0,-3.083 -0.856,-5.652 -2.569,-7.708 -1.713,-2.055 -4.139,-3.083 -7.279,-3.083 -2.969,0 -5.353,0.999 -7.151,2.998 -1.798,1.998 -2.698,4.596 -2.698,7.793 0,3.197 0.9,5.809 2.698,7.836 1.798,2.027 4.182,3.04 7.151,3.04z"/>
  <path id="_2" class="fil2" d="M147.587 74.427l0 -41.278 13.103 0 0 5.995c2.455,-4.739 6.908,-7.108 13.359,-7.108 10.049,0 15.073,5.623 15.073,16.87l0 25.521 -13.189 0 0 -21.239c0,-3.539 -0.556,-6.109 -1.67,-7.707 -1.113,-1.599 -2.983,-2.398 -5.609,-2.398 -5.31,0 -7.964,3.254 -7.964,9.763l0 21.581 -13.103 0z"/>
  <path id="_3" class="fil2" d="M222.716 14.479l13.102 0 0 59.948 -13.017 0 0 -5.823c-1.142,2.055 -2.897,3.725 -5.267,5.009 -2.369,1.285 -4.981,1.927 -7.836,1.927 -5.994,0 -10.733,-2.026 -14.216,-6.08 -3.482,-4.054 -5.224,-9.278 -5.224,-15.672 0,-6.28 1.799,-11.476 5.395,-15.586 3.597,-4.111 8.336,-6.166 14.217,-6.166 2.911,0 5.509,0.628 7.793,1.884 2.284,1.256 3.996,2.968 5.138,5.138l0 -3.511 -0.085 0 0 -21.068zm-9.25 50.185c3.141,0 5.567,-1.028 7.28,-3.083 1.713,-2.055 2.569,-4.653 2.569,-7.793 0,-3.083 -0.856,-5.652 -2.569,-7.708 -1.713,-2.055 -4.139,-3.083 -7.28,-3.083 -2.968,0 -5.352,0.999 -7.15,2.998 -1.799,1.998 -2.698,4.596 -2.698,7.793 0,3.197 0.899,5.809 2.698,7.836 1.798,2.027 4.182,3.04 7.15,3.04z"/>
  <path id="_4" class="fil2" d="M256.823 75.54c-5.995,0 -10.733,-2.026 -14.216,-6.08 -3.483,-4.054 -5.224,-9.278 -5.224,-15.672 0,-6.28 1.798,-11.476 5.395,-15.586 3.597,-4.111 8.336,-6.166 14.216,-6.166 2.912,0 5.51,0.628 7.794,1.884 2.283,1.256 3.996,2.968 5.138,5.138l0 -5.909 13.017 0 0 41.278 -13.017 0 0 -5.823c-1.142,2.055 -2.898,3.725 -5.267,5.009 -2.369,1.285 -4.981,1.927 -7.836,1.927zm3.768 -10.876c3.14,0 5.567,-1.028 7.28,-3.083 1.712,-2.055 2.569,-4.653 2.569,-7.793 0,-3.083 -0.857,-5.652 -2.569,-7.708 -1.713,-2.055 -4.14,-3.083 -7.28,-3.083 -2.969,0 -5.352,0.999 -7.151,2.998 -1.798,1.998 -2.697,4.596 -2.697,7.793 0,3.197 0.899,5.809 2.697,7.836 1.799,2.027 4.182,3.04 7.151,3.04z"/>
 </g>
</svg>
