<svg class="tecmie-logo [&amp;>.text-vector]:fill-tc-dark-blue dark:[&amp;>.text-vector]:fill-white" width="114" height="24" viewBox="0 0 114 24" xmlns="http://www.w3.org/2000/svg"><path class="text-vector" fill-rule="evenodd" clip-rule="evenodd" d="M11.9931 4.37274e-05C11.9954 1.46079e-05 11.9978 0 12.0001 0C15.1821 2.29002e-05 18.2338 1.26385 20.4841 3.51356C22.7344 5.76326 23.9991 8.81465 24 11.9966C24.0009 15.1786 22.738 18.2307 20.4889 20.4817C18.2398 22.7326 15.1888 23.9982 12.0068 24C8.82482 24.0018 5.77238 22.7397 3.52078 20.4913L3.90477 20.1068L3.52077 20.4913C1.26916 18.2429 0.00273403 15.1923 4.42175e-06 12.0103C-0.00272524 8.8283 1.25846 5.77549 3.50622 3.52323C5.75397 1.27095 8.80425 0.00365473 11.9863 9.11188e-06C11.9886 6.50849e-06 11.9908 1.80791e-05 11.9931 4.37274e-05ZM11.9938 1.08685C11.9917 1.08688 11.9896 1.08689 11.9875 1.0869C9.0937 1.09021 6.31969 2.24273 4.27554 4.291L3.89088 3.90711L4.27554 4.291C2.23137 6.33927 1.08441 9.11557 1.08689 12.0094C1.08937 14.9031 2.24109 17.6775 4.28877 19.7223C6.33643 21.767 9.1124 22.9147 12.0062 22.9131C14.9 22.9114 17.6747 21.7605 19.72 19.7135C21.7654 17.6664 22.9139 14.8907 22.9131 11.9969C22.9123 9.10316 21.7622 6.32815 19.7157 4.28221C17.6692 2.23627 14.8939 1.08691 12.0001 1.08689C11.998 1.08689 11.9959 1.08688 11.9938 1.08685Z"></path><path d="M7.88832 15.2662L15.5007 8.14196L19.5652 12L12.1423 19.0459C10.9284 20.2196 8.99181 20.325 7.81702 19.2812C6.64235 18.2376 6.67431 16.4399 7.88832 15.2662Z" fill="#FF9F1C"></path><path d="M7.88832 8.73384L15.5015 15.8573L19.5652 12L12.1423 4.95414C10.9284 3.78046 8.99181 3.675 7.81702 4.71879C6.64235 5.76246 6.67431 7.56016 7.88832 8.73384Z" fill="#E71D36"></path><path class="text-vector" d="M40.3304 7.65192C40.3304 7.83608 40.2383 7.92816 40.0542 7.92816H37.0711C36.9974 7.92816 36.9606 7.96499 36.9606 8.03866V15.3591C36.9606 16.1326 37.1355 16.6943 37.4854 17.0442C37.8353 17.3757 38.3785 17.5414 39.1151 17.5414H39.9161C40.1002 17.5414 40.1923 17.6335 40.1923 17.8176V19.5303C40.1923 19.7145 40.1002 19.8066 39.9161 19.8066C39.3268 19.8434 38.9033 19.8618 38.6455 19.8618C37.246 19.8618 36.1872 19.6132 35.469 19.116C34.7693 18.6003 34.4194 17.6611 34.4194 16.2983V8.03866C34.4194 7.96499 34.3826 7.92816 34.3089 7.92816H32.624C32.4399 7.92816 32.3478 7.83608 32.3478 7.65192V6.02209C32.3478 5.83793 32.4399 5.74585 32.624 5.74585H34.3089C34.3826 5.74585 34.4194 5.70902 34.4194 5.63535V2.37569C34.4194 2.19153 34.5115 2.09945 34.6956 2.09945H36.6844C36.8685 2.09945 36.9606 2.19153 36.9606 2.37569V5.63535C36.9606 5.70902 36.9974 5.74585 37.0711 5.74585H40.0542C40.2383 5.74585 40.3304 5.83793 40.3304 6.02209V7.65192Z"></path><path class="text-vector" d="M54.65 11.0221C54.7236 11.7771 54.7512 12.6243 54.7328 13.5635C54.7328 13.7477 54.6408 13.8397 54.4566 13.8397H45.6454C45.5717 13.8397 45.5349 13.8766 45.5349 13.9502C45.5349 14.5764 45.5901 15.0552 45.7006 15.3867C45.9032 16.1234 46.3083 16.7035 46.916 17.127C47.5421 17.5322 48.3247 17.7348 49.2638 17.7348C50.6264 17.7348 51.6761 17.1731 52.4126 16.0497C52.5047 15.8655 52.6244 15.8379 52.7717 15.9668L54.3461 17.0165C54.475 17.127 54.5027 17.2467 54.429 17.3757C53.9134 18.2044 53.1768 18.8582 52.2193 19.337C51.2802 19.8158 50.2121 20.0552 49.0152 20.0552C47.671 20.0552 46.5385 19.7605 45.6178 19.1712C44.697 18.5819 44.0065 17.744 43.5462 16.6574C43.1042 15.5709 42.8832 14.2541 42.8832 12.7072C42.8832 11.3628 42.9845 10.3407 43.1871 9.64086C43.5185 8.37015 44.1814 7.36647 45.1758 6.62982C46.1702 5.89318 47.3763 5.52485 48.7942 5.52485C50.6541 5.52485 52.0443 5.99447 52.9651 6.93369C53.8858 7.8545 54.4474 9.21729 54.65 11.0221ZM48.7942 7.81767C48.0024 7.81767 47.3487 8.02024 46.8331 8.4254C46.3175 8.81214 45.9676 9.337 45.7835 9.99998C45.6546 10.4051 45.5717 10.9208 45.5349 11.5469C45.5349 11.6206 45.5717 11.6574 45.6454 11.6574H51.9707C52.0444 11.6574 52.0812 11.6206 52.0812 11.5469C52.0444 10.9392 51.9891 10.488 51.9155 10.1934C51.7313 9.47512 51.363 8.90422 50.8106 8.48065C50.2766 8.03866 49.6045 7.81767 48.7942 7.81767Z"></path><path class="text-vector" d="M63.7135 20.0276C62.314 20.0276 61.1171 19.6777 60.1227 18.9779C59.1283 18.2596 58.447 17.2928 58.0787 16.0773C57.8025 15.2302 57.6644 14.116 57.6644 12.7348C57.6644 11.4641 57.8025 10.3499 58.0787 9.39225C58.447 8.21361 59.1283 7.27439 60.1227 6.57457C61.1355 5.87476 62.3324 5.52485 63.7135 5.52485C65.0946 5.52485 66.3007 5.87476 67.3319 6.57457C68.3631 7.27439 69.0352 8.15836 69.3483 9.2265C69.4587 9.52116 69.5324 9.82503 69.5692 10.1381C69.5692 10.2854 69.4864 10.3775 69.3206 10.4143L67.249 10.7182H67.1938C67.0649 10.7182 66.9728 10.6353 66.9176 10.4696L66.8347 10.0276C66.6874 9.40146 66.3283 8.8766 65.7575 8.45302C65.1866 8.02945 64.4961 7.81767 63.6859 7.81767C62.894 7.81767 62.2219 8.02945 61.6695 8.45302C61.1171 8.8766 60.758 9.43829 60.5923 10.1381C60.4265 10.8011 60.3437 11.6758 60.3437 12.7624C60.3437 13.8305 60.4265 14.6961 60.5923 15.3591C60.7764 16.0957 61.1355 16.6758 61.6695 17.0994C62.2219 17.523 62.894 17.7348 63.6859 17.7348C64.4961 17.7348 65.1866 17.523 65.7575 17.0994C66.3467 16.6758 66.715 16.1234 66.8623 15.442C66.8807 15.4235 66.8807 15.4051 66.8623 15.3867C66.8623 15.3499 66.8715 15.3223 66.8899 15.3038V15.1933C66.9452 15.046 67.0465 14.9908 67.1938 15.0276L69.2654 15.3591C69.4127 15.3959 69.4864 15.4696 69.4864 15.5801V15.6906C69.4864 15.8563 69.4403 16.0589 69.3483 16.2983C69.0352 17.4217 68.3631 18.3241 67.3319 19.0055C66.3007 19.6869 65.0946 20.0276 63.7135 20.0276Z"></path><path class="text-vector" d="M87.2295 5.55248C88.629 5.55248 89.7338 5.97605 90.5441 6.82319C91.3543 7.65192 91.7594 8.81214 91.7594 10.3038V19.5303C91.7594 19.7145 91.6673 19.8066 91.4832 19.8066H89.4116C89.2274 19.8066 89.1353 19.7145 89.1353 19.5303V10.8563C89.1353 9.93552 88.8776 9.20809 88.362 8.67402C87.8648 8.12153 87.1926 7.84529 86.3456 7.84529C85.4985 7.84529 84.808 8.11232 84.274 8.64639C83.74 9.18046 83.473 9.89869 83.473 10.8011V19.5303C83.473 19.7145 83.3809 19.8066 83.1967 19.8066H81.1251C80.941 19.8066 80.8489 19.7145 80.8489 19.5303V10.8563C80.8489 9.93552 80.5911 9.20809 80.0755 8.67402C79.5783 8.12153 78.9062 7.84529 78.0592 7.84529C77.2121 7.84529 76.5308 8.11232 76.0152 8.64639C75.518 9.18046 75.2694 9.89869 75.2694 10.8011V19.5303C75.2694 19.7145 75.1773 19.8066 74.9932 19.8066H72.8939C72.7098 19.8066 72.6177 19.7145 72.6177 19.5303V6.02209C72.6177 5.83793 72.7098 5.74585 72.8939 5.74585H74.9932C75.1773 5.74585 75.2694 5.83793 75.2694 6.02209V6.96131C75.2694 6.99815 75.2786 7.02577 75.297 7.04419C75.3338 7.0626 75.3707 7.05339 75.4075 7.01656C76.2177 6.04051 77.3962 5.55248 78.943 5.55248C79.8822 5.55248 80.6832 5.73664 81.3461 6.10496C82.009 6.45487 82.5246 6.97973 82.8929 7.67954C82.9482 7.75321 83.0034 7.75321 83.0586 7.67954C83.5006 6.96131 84.0806 6.42725 84.7988 6.07734C85.5354 5.72743 86.3456 5.55248 87.2295 5.55248Z"></path><path class="text-vector" d="M97.0398 3.53591C96.5242 3.53591 96.1007 3.37016 95.7692 3.03867C95.4378 2.70718 95.2721 2.28361 95.2721 1.76796C95.2721 1.2523 95.4378 0.828733 95.7692 0.497242C96.1007 0.165752 96.5242 7.62939e-06 97.0398 7.62939e-06C97.5554 7.62939e-06 97.979 0.165752 98.3104 0.497242C98.6419 0.828733 98.8076 1.2523 98.8076 1.76796C98.8076 2.28361 98.6419 2.70718 98.3104 3.03867C97.979 3.37016 97.5554 3.53591 97.0398 3.53591ZM95.935 19.779C95.7508 19.779 95.6588 19.6869 95.6588 19.5027V6.02209C95.6588 5.83793 95.7508 5.74585 95.935 5.74585H98.0342C98.2184 5.74585 98.3104 5.83793 98.3104 6.02209V19.5027C98.3104 19.6869 98.2184 19.779 98.0342 19.779H95.935Z"></path><path class="text-vector" d="M113.858 11.0221C113.932 11.7771 113.959 12.6243 113.941 13.5635C113.941 13.7477 113.849 13.8397 113.665 13.8397H104.853C104.78 13.8397 104.743 13.8766 104.743 13.9502C104.743 14.5764 104.798 15.0552 104.909 15.3867C105.111 16.1234 105.516 16.7035 106.124 17.127C106.75 17.5322 107.533 17.7348 108.472 17.7348C109.835 17.7348 110.884 17.1731 111.621 16.0497C111.713 15.8655 111.832 15.8379 111.98 15.9668L113.554 17.0165C113.683 17.127 113.711 17.2467 113.637 17.3757C113.121 18.2044 112.385 18.8582 111.427 19.337C110.488 19.8158 109.42 20.0552 108.223 20.0552C106.879 20.0552 105.747 19.7605 104.826 19.1712C103.905 18.5819 103.215 17.744 102.754 16.6574C102.312 15.5709 102.091 14.2541 102.091 12.7072C102.091 11.3628 102.193 10.3407 102.395 9.64086C102.727 8.37015 103.39 7.36647 104.384 6.62982C105.378 5.89318 106.584 5.52485 108.002 5.52485C109.862 5.52485 111.252 5.99447 112.173 6.93369C113.094 7.8545 113.656 9.21729 113.858 11.0221ZM108.002 7.81767C107.211 7.81767 106.557 8.02024 106.041 8.4254C105.526 8.81214 105.176 9.337 104.992 9.99998C104.863 10.4051 104.78 10.9208 104.743 11.5469C104.743 11.6206 104.78 11.6574 104.853 11.6574H111.179C111.252 11.6574 111.289 11.6206 111.289 11.5469C111.252 10.9392 111.197 10.488 111.124 10.1934C110.939 9.47512 110.571 8.90422 110.019 8.48065C109.485 8.03866 108.813 7.81767 108.002 7.81767Z"></path></svg>