<svg width="30" height="30" viewBox="0 0 30 30" fill="none" xmlns="http://www.w3.org/2000/svg">
<path d="M12.4143 2.87685C12.3448 1.43413 13.4657 0.156855 14.912 0.0322961C21.9079 -0.507382 29.732 5.77103 29.9826 14.7808C30.0227 16.2247 28.8799 17.4277 27.4299 17.4677C25.9799 17.5077 24.7719 16.3698 24.7317 14.9258C24.5655 8.9485 19.3953 5.16193 15.1635 5.36401C13.7147 5.43322 12.4838 4.31971 12.4143 2.87685Z" fill="white"/>
<path d="M12.2654 27.3553C12.2654 25.9108 13.4413 24.7398 14.8919 24.7398C20.9462 24.7398 24.8645 19.8787 24.7445 15.0235C24.7089 13.5795 25.8555 12.38 27.3055 12.3445C28.7557 12.3088 29.9601 13.4509 29.9958 14.8946C30.1835 22.4875 24.0961 29.9968 14.8919 29.9968C13.4413 29.9968 12.2654 28.7998 12.2654 27.3553Z" fill="white"/>
<path d="M15.0955 9.4107C13.6105 9.4107 12.4066 8.20104 12.4066 6.70895V2.77159C12.4066 1.27935 13.6105 0.0323563 15.0955 0.0323563C16.5807 0.0323563 17.7846 1.27935 17.7846 2.77159V6.70895C17.7846 8.20104 16.5807 9.4107 15.0955 9.4107Z" fill="white"/>
<path d="M15.0994 17.6723C13.6122 17.6723 12.4066 16.4703 12.4066 14.9894C12.4066 13.5083 13.6122 12.3064 15.0994 12.3064C16.5867 12.3064 17.7924 13.5083 17.7924 14.9894C17.7924 16.4703 16.5867 17.6723 15.0994 17.6723Z" fill="url(#paint0_linear_108_768)"/>
<path d="M2.51754 12.3807C3.96684 12.3207 5.19052 13.4421 5.25071 14.8853C5.51056 21.1157 10.4143 24.9191 15.0704 24.7338C16.5198 24.6762 17.7417 25.7763 17.7996 27.2196C17.8575 28.6628 16.6877 29.932 15.2384 29.9896C7.65066 30.2914 0.149616 23.9827 0.00230465 15.1025C-0.0578844 13.6593 1.06822 12.4406 2.51754 12.3807Z" fill="white"/>
<defs>
<linearGradient id="paint0_linear_108_768" x1="15.6634" y1="25.3681" x2="22.123" y2="17.9005" gradientUnits="userSpaceOnUse">
<stop stopColor="#FA0000" />
<stop offset="1" stopColor="#E0605A"/>
</linearGradient>
</defs>
</svg>
