<svg width="1038" height="150" viewBox="0 0 1038 150" fill="none" xmlns="http://www.w3.org/2000/svg">
<g clipPath="url(#clip0_12_469)">
<path d="M38.3653 79.461L96.8389 21.0495C100.79 17.1202 106.135 14.9145 111.706 14.9145C117.278 14.9145 122.623 17.1202 126.574 21.0495L131.118 25.5938L140.227 16.4845L135.683 11.9195C129.311 5.56117 120.677 1.99023 111.675 1.99023C102.673 1.99023 94.0395 5.56117 87.6677 11.9195L29.2354 70.3516L38.3653 79.461Z" fill="black"/>
<path d="M116.428 40.285L107.319 31.1758L48.8244 89.67C44.8731 93.6187 39.5151 95.8356 33.9289 95.8337C28.3429 95.8318 22.9864 93.6112 19.0378 89.66C15.0893 85.7081 12.872 80.3506 12.874 74.7643C12.8759 69.1781 15.0969 63.8218 19.0482 59.873L69.5123 9.40903L60.4029 0.299805L9.93894 50.7638C6.72638 53.9018 4.1684 57.6462 2.41316 61.7798C0.657925 65.9137 -0.259681 70.3543 -0.286504 74.845C-0.313326 79.3356 0.551169 83.7875 2.25691 87.9418C3.96264 92.0962 6.47569 95.8706 9.65057 99.0468C12.8254 102.223 16.5989 104.737 20.7524 106.445C24.9061 108.153 29.3572 109.019 33.8479 108.994C38.3388 108.969 42.78 108.054 46.9144 106.301C51.0488 104.547 54.7943 101.991 57.9337 98.7793L116.428 40.285ZM174.652 50.7638C168.278 44.4105 159.645 40.8431 150.645 40.8431C141.645 40.8431 133.012 44.4105 126.637 50.7638L68.1429 109.258L77.2516 118.367L135.746 59.873C138.693 56.9323 142.445 54.9307 146.529 54.1212C150.612 53.3117 154.844 53.7305 158.689 55.3247C162.535 56.9188 165.822 59.617 168.135 63.0781C170.448 66.5393 171.684 70.6087 171.685 74.7718C171.696 77.545 171.15 80.2925 170.081 82.8512C169.012 85.41 167.441 87.7287 165.46 89.67L115.059 140.134L124.188 149.243L174.652 98.7793C181.011 92.4075 184.582 83.7731 184.582 74.7718C184.582 65.77 181.011 57.1358 174.652 50.7638Z" fill="black"/>
<path d="M146.225 70.082L87.7305 128.556C83.7749 132.499 78.4174 134.713 72.8324 134.713C67.2468 134.713 61.8894 132.499 57.9338 128.556L53.3895 123.991L44.2803 133.1L48.8245 137.665C55.1992 144.018 63.8324 147.586 72.8324 147.586C81.8324 147.586 90.4655 144.018 96.8399 137.665L155.334 79.1502L146.225 70.082Z" fill="black"/>
<path d="M238.002 90.5C238.6 93.97 240.491 97.0838 243.293 99.215C246.508 101.439 250.366 102.541 254.27 102.349C257.986 102.586 261.665 101.489 264.645 99.2569C265.833 98.2688 266.78 97.0219 267.412 95.6125C268.045 94.2025 268.348 92.6669 268.297 91.1225C268.339 89.6781 268.003 88.2475 267.321 86.9725C266.64 85.8156 265.703 84.8294 264.583 84.0888C263.246 83.2013 261.794 82.5031 260.266 82.0138L254.498 80.2706L249 78.7763C245.951 77.9688 242.985 76.8781 240.139 75.5188C237.696 74.3638 235.438 72.8531 233.437 71.0369C231.653 69.38 230.238 67.3644 229.287 65.1231C228.272 62.6569 227.778 60.0079 227.835 57.3418C227.805 54.3878 228.443 51.4655 229.702 48.7928C230.915 46.1918 232.711 43.9055 234.951 42.1113C237.416 40.139 240.233 38.6533 243.251 37.7331C246.78 36.6151 250.466 36.0756 254.166 36.1353C261.788 36.1353 267.826 37.9336 272.281 41.5303C274.488 43.3081 276.32 45.5084 277.666 48.0025C279.013 50.4966 279.849 53.2343 280.125 56.0553L267.675 57.0721C267.058 54.2154 265.457 51.6666 263.151 49.8718C260.355 48.0029 257.025 47.0993 253.668 47.2988C250.5 47.1126 247.367 48.0372 244.808 49.9133C243.786 50.7099 242.965 51.7348 242.41 52.9058C241.855 54.0768 241.581 55.3616 241.613 56.6571C241.561 58.0381 241.884 59.4073 242.546 60.6203C243.214 61.74 244.13 62.6913 245.223 63.4006C246.556 64.2675 247.991 64.965 249.498 65.4756C251.178 66.0981 253.087 66.7625 255.204 67.4469L260.474 69.0863C263.753 70.1238 266.72 71.2025 269.376 72.3231C271.818 73.3619 274.091 74.7613 276.12 76.4731C277.948 78.0206 279.408 79.9556 280.394 82.1381C281.461 84.7131 281.971 87.4856 281.888 90.2719C281.923 93.5294 281.213 96.7513 279.813 99.6925C278.463 102.518 276.491 105.001 274.045 106.955C271.416 109.034 268.426 110.609 265.226 111.603C261.58 112.737 257.777 113.291 253.959 113.243C247.206 113.494 240.543 111.621 234.91 107.889C232.28 105.986 230.078 103.553 228.445 100.748C226.812 97.9425 225.784 94.8263 225.428 91.6L238.002 90.5ZM334.386 36.3428C339.605 36.2753 344.787 37.2341 349.637 39.1648C354.066 40.9389 358.064 43.6418 361.361 47.0913C364.669 50.6086 367.231 54.7589 368.893 59.2923C370.718 64.2756 371.625 69.5481 371.57 74.855C371.644 80.2588 370.679 85.6269 368.727 90.6663C366.907 95.2469 364.159 99.4006 360.655 102.868L370.532 114.425V118.015H358.082L351.173 109.569C348.669 110.768 346.047 111.699 343.35 112.35C340.438 112.973 337.467 113.279 334.49 113.263C329.21 113.295 323.977 112.279 319.093 110.275C314.688 108.489 310.719 105.779 307.452 102.328C304.185 98.8263 301.664 94.6963 300.045 90.1888C298.255 85.255 297.363 80.0406 297.409 74.7925C297.357 69.51 298.25 64.2606 300.045 59.2923C301.674 54.7697 304.217 50.6308 307.515 47.1328C310.803 43.6824 314.784 40.9669 319.196 39.1648C324.018 37.2112 329.185 36.2513 334.386 36.3428ZM334.282 47.4648C330.856 47.412 327.461 48.1207 324.343 49.5398C321.478 50.8634 318.946 52.8134 316.935 55.2461C314.844 57.7969 313.265 60.728 312.287 63.8781C311.205 67.3856 310.673 71.0394 310.71 74.7094C310.674 78.4119 311.227 82.0956 312.349 85.6238C313.355 88.8025 314.945 91.7656 317.039 94.36C319.046 96.8219 321.577 98.8069 324.446 100.17C327.561 101.599 330.959 102.308 334.386 102.245C337.81 102.278 341.2 101.57 344.325 100.17C347.185 98.8744 349.716 96.9525 351.733 94.5463C353.851 91.9919 355.445 89.0444 356.422 85.8731C357.557 82.2619 358.118 78.495 358.082 74.7094C358.114 70.9788 357.553 67.2669 356.422 63.7119C355.43 60.5592 353.838 57.6281 351.733 55.0801C349.695 52.6737 347.151 50.7466 344.283 49.4361C341.133 48.0567 337.72 47.3838 334.282 47.4648ZM420.478 102.764C422.785 102.906 425.095 102.541 427.245 101.695C429.396 100.849 431.335 99.5419 432.928 97.8663C435.874 94.6156 437.347 89.6219 437.347 82.885V37.7746H450.275V83.3C450.376 87.9638 449.675 92.6106 448.2 97.0363C447.008 100.581 444.996 103.795 442.327 106.416C439.68 108.922 436.471 110.758 432.969 111.769C424.822 114.022 416.216 114.022 408.069 111.769C404.58 110.757 401.384 108.921 398.752 106.416C396.091 103.789 394.08 100.578 392.88 97.0363C391.406 92.6106 390.704 87.9638 390.805 83.3V37.7746H403.774V82.885C403.774 89.6081 405.254 94.6019 408.214 97.8663C409.784 99.5194 411.693 100.813 413.81 101.659C415.926 102.504 418.201 102.881 420.478 102.764ZM463.223 108.2L489.471 37.8576H508.935L534.893 108.2V111.728H522.131L514.703 90.6038H482.686L475.175 111.728H463.14L463.223 108.2ZM486.587 79.565H511.01L506.984 67.8206C505.407 63.235 504.141 59.5206 503.166 56.5948C502.191 53.6691 501.361 51.1791 500.593 48.9796H497.418L496.173 52.4863C495.758 53.6483 495.302 54.9556 494.783 56.3873C494.265 57.8191 493.704 59.4791 493.081 61.3466C492.459 63.2138 491.712 65.3513 490.82 67.8206L486.587 79.565ZM607.393 111.728H594.943L572.388 82.6775H564.088V111.728H551.306V37.7746H575.314C578.911 37.7683 582.503 38.0248 586.063 38.5423C589.37 39.0219 592.526 40.2419 595.296 42.1113C601.134 45.957 604.053 51.7531 604.053 59.4998C604.111 62.5019 603.596 65.4881 602.538 68.2975C601.641 70.6638 600.295 72.8338 598.575 74.6888C596.933 76.4319 595.003 77.8781 592.868 78.9631C590.729 80.0569 588.465 80.8863 586.125 81.4325L607.393 108.2V111.728ZM564.046 71.5556H575.273C579.343 71.7725 583.391 70.8375 586.955 68.8581C588.39 67.8988 589.543 66.5738 590.295 65.02C591.046 63.4656 591.368 61.7391 591.229 60.0186C591.399 58.3109 591.081 56.59 590.315 55.0551C589.547 53.5201 588.36 52.2339 586.893 51.3451C583.29 49.5541 579.291 48.7114 575.273 48.8966H564.046V71.5556ZM623.869 37.7746H671.763V49.1041H636.488V68.4638H669.232V79.5856H636.55V100.336H672.488V111.728H623.869V37.7746ZM701.119 90.5C701.719 93.97 703.613 97.0838 706.413 99.215C709.625 101.436 713.488 102.538 717.388 102.349C721.106 102.586 724.781 101.489 727.763 99.2569C728.95 98.2688 729.9 97.0219 730.532 95.6125C731.163 94.2025 731.469 92.6669 731.419 91.1225C731.457 89.6781 731.119 88.2475 730.444 86.9725C729.756 85.8156 728.825 84.8294 727.7 84.0888C726.363 83.2013 724.913 82.5031 723.388 82.0138L717.619 80.2706L712.056 78.735C709.006 77.9275 706.044 76.8369 703.194 75.4775C700.75 74.3219 698.494 72.8119 696.494 70.995C694.707 69.3381 693.294 67.3231 692.344 65.0813C691.319 62.4699 690.825 59.6793 690.9 56.8744C690.969 54.0696 691.6 51.3075 692.756 48.7513C693.981 46.1546 695.775 43.8697 698.006 42.0698C700.475 40.0975 703.288 38.6118 706.306 37.6916C709.838 36.5736 713.525 36.0341 717.225 36.0938C724.844 36.0938 730.888 37.8921 735.356 41.4888C737.563 43.2676 739.394 45.4686 740.731 47.9628C742.075 50.4569 742.906 53.194 743.181 56.0138L730.732 57.0306C730.125 54.1799 728.538 51.6319 726.25 49.8303C723.456 47.9586 720.125 47.0548 716.769 47.2573C713.6 47.0711 710.463 47.9957 707.906 49.8718C706.888 50.6705 706.069 51.6963 705.519 52.8673C704.969 54.0382 704.7 55.3218 704.731 56.6156C704.675 57.9947 704.988 59.3638 705.644 60.5788C706.313 61.6984 707.225 62.65 708.319 63.3594C709.656 64.2263 711.088 64.9231 712.594 65.4344C714.275 66.0569 716.188 66.7206 718.325 67.4056L723.575 69.045C726.863 70.0825 729.831 71.1613 732.475 72.2819C734.919 73.3206 737.188 74.7194 739.219 76.4319C741.044 77.9794 742.506 79.9144 743.494 82.0963C744.563 84.6719 745.069 87.4444 744.988 90.2306C745.019 93.4875 744.313 96.71 742.913 99.6513C741.569 102.481 739.594 104.964 737.144 106.914C734.513 108.976 731.519 110.537 728.325 111.52C724.669 112.654 720.863 113.207 717.038 113.159C710.281 113.408 703.625 111.536 697.988 107.806C695.375 105.908 693.188 103.487 691.563 100.697C689.938 97.9069 688.906 94.8088 688.544 91.6L701.119 90.5ZM763.413 37.7746H790.388C794.663 37.6642 798.925 38.2601 803.006 39.5383C806.106 40.4938 808.944 42.1479 811.307 44.3731C813.375 46.3913 814.931 48.8837 815.825 51.6356C816.775 54.5416 817.25 57.5835 817.219 60.6411C817.3 64.0863 816.65 67.51 815.306 70.6838C814.094 73.4594 812.206 75.885 809.813 77.7388C807.188 79.6794 804.213 81.0888 801.05 81.8888C797.25 82.8644 793.338 83.3319 789.413 83.2794H776.338V111.728H763.456L763.413 37.7746ZM776.3 72.1781H788.644C790.731 72.1938 792.819 72.0056 794.869 71.6175C796.619 71.2906 798.288 70.6513 799.807 69.7294C801.206 68.855 802.344 67.6231 803.106 66.1606C803.944 64.4438 804.35 62.5494 804.288 60.6411C804.35 58.6856 803.944 56.7437 803.106 54.9763C802.369 53.4951 801.244 52.2408 799.85 51.3451C798.356 50.4169 796.7 49.7765 794.975 49.4568C792.919 49.0656 790.838 48.878 788.75 48.8966H776.194L776.3 72.1781ZM820.788 108.2L847.057 37.8576H866.519L892.456 108.2V111.728H879.8L872.394 90.6038H840.25L832.844 111.728H820.788V108.2ZM844.169 79.565H868.575L864.55 67.8206C862.969 63.235 861.706 59.5206 860.75 56.5948L858.175 48.9796H854.9L853.656 52.4863C853.238 53.6483 852.781 54.9556 852.263 56.3873C851.744 57.8191 851.188 59.4791 850.563 61.3466C849.938 63.2138 849.194 65.3513 848.3 67.8206L844.169 79.565ZM970.931 92.16C969.763 95.0538 968.225 97.7869 966.369 100.294C964.438 102.865 962.125 105.119 959.5 106.976C956.656 108.973 953.513 110.5 950.182 111.499C946.363 112.644 942.388 113.204 938.4 113.159C933.244 113.238 928.131 112.256 923.375 110.275C919.019 108.458 915.094 105.743 911.856 102.307C908.606 98.7931 906.1 94.6569 904.494 90.1475C902.731 85.2431 901.856 80.0656 901.9 74.855C901.85 69.6438 902.731 64.4663 904.494 59.5621C906.106 55.0328 908.625 50.8808 911.9 47.3611C915.156 43.889 919.1 41.1329 923.475 39.2686C928.25 37.2618 933.388 36.2656 938.563 36.3428C945.763 36.0868 952.869 38.0656 958.9 42.0076C964.256 45.6596 968.319 50.9203 970.5 57.0306L957.406 59.6036C955.775 56.0096 953.188 52.931 949.931 50.7018C946.494 48.4733 942.456 47.3443 938.356 47.4648C934.994 47.3913 931.663 48.1017 928.625 49.5398C925.825 50.9129 923.369 52.8902 921.425 55.3291C919.381 57.9271 917.863 60.8928 916.944 64.065C915.881 67.5556 915.357 71.1863 915.388 74.8338C915.357 78.5056 915.894 82.1594 916.981 85.6656C917.956 88.8063 919.531 91.7294 921.613 94.2769C923.638 96.6688 926.169 98.5881 929.019 99.9C932.119 101.323 935.5 102.032 938.919 101.975C943.156 102.146 947.338 100.913 950.806 98.4681C953.863 96.2281 956.35 93.2994 958.069 89.9194L970.931 92.16ZM988.344 37.7746H1036.23V49.1041H1000.96V68.4638H1033.76V79.5856H1001.02V100.336H1036.96V111.728H988.344V37.7746Z" fill="black"/>
</g>
<defs>
<clipPath id="clip0_12_469">
<rect width="1037.5" height="150" fill="white"/>
</clipPath>
</defs>
</svg>
